<svg xmlns="http://www.w3.org/2000/svg" xmlns:xlink="http://www.w3.org/1999/xlink" width="500" zoomAndPan="magnify" viewBox="0 0 375 374.999991" height="500" preserveAspectRatio="xMidYMid meet" version="1.0"><defs><g/></defs><rect x="-37.5" width="450" fill="#ffffff" y="-37.499999" height="449.999989" fill-opacity="1"/><rect x="-37.5" width="450" fill="#ffffff" y="-37.499999" height="449.999989" fill-opacity="1"/><g fill="#4caf50" fill-opacity="1"><g transform="translate(83.812095, 304.414756)"><g><path d="M 14 0.578125 C 11.601562 0.578125 9.425781 0.0078125 7.46875 -1.125 C 5.507812 -2.269531 3.957031 -3.832031 2.8125 -5.8125 C 1.675781 -7.789062 1.109375 -9.984375 1.109375 -12.390625 C 1.109375 -14.835938 1.660156 -17.039062 2.765625 -19 C 3.867188 -20.96875 5.378906 -22.507812 7.296875 -23.625 C 9.222656 -24.75 11.382812 -25.3125 13.78125 -25.3125 C 15.082031 -25.3125 16.351562 -25.15625 17.59375 -24.84375 C 18.84375 -24.53125 19.914062 -24.085938 20.8125 -23.515625 L 19.84375 -17.921875 C 18.113281 -18.578125 16.550781 -18.90625 15.15625 -18.90625 C 13.238281 -18.90625 11.765625 -18.34375 10.734375 -17.21875 C 9.703125 -16.101562 9.1875 -14.503906 9.1875 -12.421875 C 9.1875 -10.378906 9.726562 -8.785156 10.8125 -7.640625 C 11.90625 -6.503906 13.425781 -5.9375 15.375 -5.9375 C 16.113281 -5.9375 16.804688 -6.007812 17.453125 -6.15625 C 18.109375 -6.300781 18.90625 -6.566406 19.84375 -6.953125 L 20.84375 -1.265625 C 18.757812 -0.0351562 16.476562 0.578125 14 0.578125 Z M 14 0.578125 "/></g></g></g><g fill="#4caf50" fill-opacity="1"><g transform="translate(105.556143, 304.414756)"><g><path d="M 1.796875 -23.71875 L 9.390625 -24.84375 L 9.390625 -14.328125 C 9.921875 -15.597656 10.71875 -16.570312 11.78125 -17.25 C 12.851562 -17.9375 14.144531 -18.28125 15.65625 -18.28125 C 17.957031 -18.28125 19.765625 -17.457031 21.078125 -15.8125 C 22.390625 -14.175781 23.046875 -11.90625 23.046875 -9 L 23.046875 0 L 15.484375 0 L 15.484375 -9.75 C 15.484375 -10.78125 15.257812 -11.570312 14.8125 -12.125 C 14.363281 -12.675781 13.742188 -12.953125 12.953125 -12.953125 C 12.378906 -12.953125 11.816406 -12.765625 11.265625 -12.390625 C 10.710938 -12.023438 10.257812 -11.492188 9.90625 -10.796875 C 9.5625 -10.097656 9.390625 -9.304688 9.390625 -8.421875 L 9.390625 0 L 1.796875 0 Z M 1.796875 -23.71875 "/></g></g></g><g fill="#4caf50" fill-opacity="1"><g transform="translate(130.288197, 304.414756)"><g><path d="M 11.265625 0.28125 C 9.222656 0.28125 7.421875 -0.101562 5.859375 -0.875 C 4.304688 -1.65625 3.09375 -2.753906 2.21875 -4.171875 C 1.34375 -5.585938 0.90625 -7.207031 0.90625 -9.03125 C 0.90625 -10.976562 1.378906 -12.644531 2.328125 -14.03125 C 3.273438 -15.425781 4.53125 -16.484375 6.09375 -17.203125 C 7.664062 -17.921875 9.398438 -18.28125 11.296875 -18.28125 C 12.085938 -18.28125 12.941406 -18.210938 13.859375 -18.078125 C 14.578125 -17.972656 15.117188 -17.921875 15.484375 -17.921875 C 16.222656 -17.921875 16.765625 -17.992188 17.109375 -18.140625 C 17.460938 -18.285156 17.722656 -18.597656 17.890625 -19.078125 C 18.054688 -19.554688 18.140625 -20.328125 18.140625 -21.390625 L 22.359375 -21.390625 C 22.359375 -19.421875 22.128906 -17.941406 21.671875 -16.953125 C 21.210938 -15.972656 20.445312 -15.335938 19.375 -15.046875 C 20.90625 -13.273438 21.671875 -11.269531 21.671875 -9.03125 C 21.671875 -6.945312 21.164062 -5.203125 20.15625 -3.796875 C 19.144531 -2.390625 17.847656 -1.359375 16.265625 -0.703125 C 14.679688 -0.046875 13.015625 0.28125 11.265625 0.28125 Z M 11.34375 -5.109375 C 12.25 -5.109375 13.035156 -5.445312 13.703125 -6.125 C 14.378906 -6.8125 14.71875 -7.78125 14.71875 -9.03125 C 14.71875 -10.28125 14.378906 -11.242188 13.703125 -11.921875 C 13.035156 -12.609375 12.25 -12.953125 11.34375 -12.953125 C 10.425781 -12.953125 9.628906 -12.609375 8.953125 -11.921875 C 8.285156 -11.242188 7.953125 -10.28125 7.953125 -9.03125 C 7.953125 -7.78125 8.285156 -6.8125 8.953125 -6.125 C 9.628906 -5.445312 10.425781 -5.109375 11.34375 -5.109375 Z M 11.3125 10.015625 C 10.1875 10.015625 9.234375 9.660156 8.453125 8.953125 C 7.671875 8.242188 7.28125 7.375 7.28125 6.34375 C 7.28125 5.300781 7.6875 4.429688 8.5 3.734375 C 9.3125 3.046875 10.25 2.703125 11.3125 2.703125 C 12.414062 2.703125 13.367188 3.0625 14.171875 3.78125 C 14.972656 4.5 15.375 5.351562 15.375 6.34375 C 15.375 7.394531 14.960938 8.269531 14.140625 8.96875 C 13.328125 9.664062 12.382812 10.015625 11.3125 10.015625 Z M 11.3125 10.015625 "/></g></g></g><g fill="#4caf50" fill-opacity="1"><g transform="translate(152.860236, 304.414756)"><g/></g></g><g fill="#4caf50" fill-opacity="1"><g transform="translate(159.592245, 304.414756)"><g><path d="M 21.09375 0.578125 C 16.582031 0.578125 13.820312 -1.507812 12.8125 -5.6875 L 11.921875 -9.390625 L 10.21875 -9.390625 L 10.21875 0 L 2.34375 0 L 2.34375 -24.765625 L 13.25 -24.765625 C 15.3125 -24.765625 17.128906 -24.457031 18.703125 -23.84375 C 20.273438 -23.238281 21.492188 -22.382812 22.359375 -21.28125 C 23.222656 -20.175781 23.65625 -18.898438 23.65625 -17.453125 C 23.65625 -15.847656 23.265625 -14.5 22.484375 -13.40625 C 21.703125 -12.3125 20.492188 -11.421875 18.859375 -10.734375 C 19.023438 -9.816406 19.21875 -8.988281 19.4375 -8.25 C 19.726562 -7.332031 20.125 -6.691406 20.625 -6.328125 C 21.132812 -5.972656 21.867188 -5.796875 22.828125 -5.796875 C 23.160156 -5.796875 23.6875 -5.84375 24.40625 -5.9375 L 24.40625 -0.078125 C 23.28125 0.359375 22.175781 0.578125 21.09375 0.578125 Z M 11.59375 -14.4375 C 13.363281 -14.4375 14.613281 -14.632812 15.34375 -15.03125 C 16.082031 -15.425781 16.453125 -16.101562 16.453125 -17.0625 C 16.453125 -17.875 16.148438 -18.46875 15.546875 -18.84375 C 14.953125 -19.21875 14.003906 -19.40625 12.703125 -19.40625 L 10.21875 -19.40625 L 10.21875 -14.4375 Z M 11.59375 -14.4375 "/></g></g></g><g fill="#4caf50" fill-opacity="1"><g transform="translate(184.720299, 304.414756)"><g><path d="M 9.75 0.28125 C 8.195312 0.28125 6.738281 -0.128906 5.375 -0.953125 C 4.019531 -1.785156 2.9375 -2.914062 2.125 -4.34375 C 1.3125 -5.769531 0.90625 -7.359375 0.90625 -9.109375 C 0.90625 -10.835938 1.3125 -12.398438 2.125 -13.796875 C 2.9375 -15.203125 4.023438 -16.300781 5.390625 -17.09375 C 6.765625 -17.882812 8.21875 -18.28125 9.75 -18.28125 C 11 -18.28125 12.15625 -17.929688 13.21875 -17.234375 C 14.289062 -16.546875 15.101562 -15.503906 15.65625 -14.109375 L 15.65625 -18.28125 L 23.21875 -18.28125 L 23.21875 0 L 15.65625 0 L 15.65625 -3.34375 C 14.457031 -0.925781 12.488281 0.28125 9.75 0.28125 Z M 12.09375 -5.40625 C 13.050781 -5.40625 13.875 -5.742188 14.5625 -6.421875 C 15.25 -7.109375 15.613281 -7.921875 15.65625 -8.859375 L 15.65625 -9.140625 C 15.613281 -10.097656 15.238281 -10.910156 14.53125 -11.578125 C 13.820312 -12.253906 13.007812 -12.59375 12.09375 -12.59375 C 11.082031 -12.59375 10.222656 -12.238281 9.515625 -11.53125 C 8.804688 -10.820312 8.453125 -9.976562 8.453125 -9 C 8.453125 -7.988281 8.8125 -7.132812 9.53125 -6.4375 C 10.257812 -5.75 11.113281 -5.40625 12.09375 -5.40625 Z M 5.96875 -32.71875 L 16.53125 -39.03125 L 19.578125 -33.234375 L 7.59375 -29.515625 Z M 9.1875 -28.21875 L 15.84375 -28.21875 L 20.265625 -21.09375 L 14.40625 -21.09375 L 12.484375 -24.734375 L 10.625 -21.09375 L 4.75 -21.09375 Z M 9.1875 -28.21875 "/></g></g></g><g fill="#4caf50" fill-opacity="1"><g transform="translate(209.776347, 304.414756)"><g><path d="M 9.6875 0.28125 C 7.570312 0.28125 5.925781 -0.320312 4.75 -1.53125 C 3.570312 -2.738281 2.984375 -4.410156 2.984375 -6.546875 L 2.984375 -13.578125 L 0.6875 -13.578125 L 0.6875 -18.03125 L 3.53125 -18.03125 L 6.875 -24.84375 L 10.515625 -24.84375 L 10.515625 -18.03125 L 14.6875 -18.03125 L 14.6875 -13.578125 L 10.515625 -13.578125 L 10.515625 -7.453125 C 10.515625 -6.847656 10.703125 -6.378906 11.078125 -6.046875 C 11.460938 -5.710938 12.003906 -5.546875 12.703125 -5.546875 C 13.359375 -5.546875 13.945312 -5.6875 14.46875 -5.96875 L 14.765625 -0.9375 C 14.160156 -0.570312 13.382812 -0.273438 12.4375 -0.046875 C 11.488281 0.171875 10.570312 0.28125 9.6875 0.28125 Z M 9.6875 0.28125 "/></g></g></g><g fill="#4caf50" fill-opacity="1"><g transform="translate(225.436372, 304.414756)"><g/></g></g><g fill="#4caf50" fill-opacity="1"><g transform="translate(232.168382, 304.414756)"><g><path d="M 6.1875 -19.296875 L 1.046875 -19.296875 L 1.046875 -24.765625 L 19.734375 -24.765625 L 19.734375 -19.296875 L 14.578125 -19.296875 L 14.578125 0 L 6.1875 0 Z M 6.1875 -19.296875 "/></g></g></g><g fill="#4caf50" fill-opacity="1"><g transform="translate(252.940425, 304.414756)"><g><path d="M 11.265625 0.28125 C 9.253906 0.28125 7.460938 -0.113281 5.890625 -0.90625 C 4.316406 -1.695312 3.09375 -2.789062 2.21875 -4.1875 C 1.34375 -5.59375 0.90625 -7.207031 0.90625 -9.03125 C 0.90625 -10.851562 1.347656 -12.46875 2.234375 -13.875 C 3.117188 -15.28125 4.347656 -16.363281 5.921875 -17.125 C 7.492188 -17.894531 9.285156 -18.28125 11.296875 -18.28125 C 13.335938 -18.28125 15.144531 -17.890625 16.71875 -17.109375 C 18.289062 -16.335938 19.507812 -15.253906 20.375 -13.859375 C 21.238281 -12.460938 21.671875 -10.851562 21.671875 -9.03125 C 21.671875 -7.1875 21.234375 -5.5625 20.359375 -4.15625 C 19.484375 -2.75 18.257812 -1.65625 16.6875 -0.875 C 15.113281 -0.101562 13.304688 0.28125 11.265625 0.28125 Z M 11.34375 -5.109375 C 12.320312 -5.109375 13.128906 -5.472656 13.765625 -6.203125 C 14.398438 -6.941406 14.71875 -7.882812 14.71875 -9.03125 C 14.71875 -10.1875 14.398438 -11.128906 13.765625 -11.859375 C 13.128906 -12.585938 12.320312 -12.953125 11.34375 -12.953125 C 10.351562 -12.953125 9.539062 -12.585938 8.90625 -11.859375 C 8.269531 -11.128906 7.953125 -10.1875 7.953125 -9.03125 C 7.953125 -7.882812 8.269531 -6.941406 8.90625 -6.203125 C 9.539062 -5.472656 10.351562 -5.109375 11.34375 -5.109375 Z M 4.75 -32.71875 L 15.3125 -39.03125 L 18.359375 -33.234375 L 6.375 -29.515625 Z M 7.96875 -28.21875 L 14.625 -28.21875 L 19.046875 -21.09375 L 13.1875 -21.09375 L 11.265625 -24.734375 L 9.40625 -21.09375 L 3.53125 -21.09375 Z M 7.96875 -28.21875 "/></g></g></g><g fill="#4caf50" fill-opacity="1"><g transform="translate(275.512464, 304.414756)"><g><path d="M 9.6875 0.28125 C 7.570312 0.28125 5.925781 -0.320312 4.75 -1.53125 C 3.570312 -2.738281 2.984375 -4.410156 2.984375 -6.546875 L 2.984375 -13.578125 L 0.6875 -13.578125 L 0.6875 -18.03125 L 3.53125 -18.03125 L 6.875 -24.84375 L 10.515625 -24.84375 L 10.515625 -18.03125 L 14.6875 -18.03125 L 14.6875 -13.578125 L 10.515625 -13.578125 L 10.515625 -7.453125 C 10.515625 -6.847656 10.703125 -6.378906 11.078125 -6.046875 C 11.460938 -5.710938 12.003906 -5.546875 12.703125 -5.546875 C 13.359375 -5.546875 13.945312 -5.6875 14.46875 -5.96875 L 14.765625 -0.9375 C 14.160156 -0.570312 13.382812 -0.273438 12.4375 -0.046875 C 11.488281 0.171875 10.570312 0.28125 9.6875 0.28125 Z M 9.6875 0.28125 "/></g></g></g><path fill="#67ce67" d="M 204.703125 217.339844 C 202.636719 217.878906 200.535156 218.175781 198.398438 218.226562 C 197.5625 218.289062 196.730469 218.25 195.902344 218.101562 C 195.074219 217.953125 194.28125 217.707031 193.515625 217.359375 C 192.753906 217.011719 192.042969 216.574219 191.390625 216.046875 C 190.738281 215.519531 190.160156 214.917969 189.660156 214.242188 C 185.566406 208.824219 188.882812 200.414062 191.648438 195.214844 L 147.949219 125.183594 L 136.332031 108.03125 L 119.625 109.359375 C 119.265625 109.398438 118.902344 109.402344 118.542969 109.367188 C 118.183594 109.332031 117.828125 109.261719 117.480469 109.15625 C 117.132812 109.050781 116.800781 108.914062 116.484375 108.742188 C 116.164062 108.570312 115.863281 108.367188 115.585938 108.132812 C 115.308594 107.902344 115.054688 107.644531 114.828125 107.363281 C 114.601562 107.078125 114.40625 106.777344 114.238281 106.453125 C 114.070312 106.132812 113.941406 105.796875 113.839844 105.449219 C 113.742188 105.097656 113.679688 104.742188 113.652344 104.382812 C 113.621094 104.019531 113.625 103.65625 113.667969 103.292969 C 113.710938 102.929688 113.785156 102.578125 113.898438 102.230469 C 114.007812 101.882812 114.152344 101.550781 114.332031 101.230469 C 114.507812 100.910156 114.714844 100.613281 114.953125 100.335938 C 115.1875 100.058594 115.449219 99.808594 115.738281 99.582031 C 116.023438 99.355469 116.328125 99.160156 116.652344 98.992188 C 116.980469 98.828125 117.316406 98.695312 117.667969 98.597656 C 118.019531 98.5 118.375 98.4375 118.742188 98.40625 L 138.65625 96.75 C 139.65625 96.683594 140.613281 96.863281 141.519531 97.296875 C 142.425781 97.730469 143.167969 98.359375 143.746094 99.183594 L 154.808594 116 L 265.445312 82.808594 C 266.28125 82.554688 267.125 82.507812 267.984375 82.664062 C 268.84375 82.820312 269.621094 83.164062 270.3125 83.691406 C 271.015625 84.191406 271.570312 84.820312 271.976562 85.578125 C 272.386719 86.335938 272.605469 87.148438 272.636719 88.007812 L 274.074219 174.414062 C 274.078125 175.019531 273.984375 175.613281 273.796875 176.1875 C 273.609375 176.761719 273.335938 177.296875 272.976562 177.785156 C 272.621094 178.273438 272.195312 178.691406 271.699219 179.042969 C 271.207031 179.394531 270.667969 179.65625 270.089844 179.835938 L 201.828125 200.082031 C 200.523438 202.449219 199.601562 204.957031 199.0625 207.605469 C 200.039062 207.523438 201 207.339844 201.9375 207.050781 L 275.734375 184.925781 C 276.085938 184.828125 276.445312 184.769531 276.808594 184.742188 C 277.171875 184.714844 277.535156 184.722656 277.898438 184.765625 C 278.261719 184.804688 278.617188 184.882812 278.964844 184.992188 C 279.3125 185.101562 279.648438 185.242188 279.96875 185.414062 C 280.289062 185.589844 280.59375 185.792969 280.875 186.023438 C 281.15625 186.253906 281.417969 186.507812 281.648438 186.789062 C 281.882812 187.070312 282.089844 187.367188 282.265625 187.6875 C 282.445312 188.007812 282.589844 188.339844 282.703125 188.6875 C 282.804688 189.035156 282.871094 189.390625 282.902344 189.753906 C 282.933594 190.113281 282.929688 190.476562 282.890625 190.835938 C 282.851562 191.199219 282.777344 191.550781 282.667969 191.898438 C 282.558594 192.246094 282.417969 192.578125 282.242188 192.894531 C 282.070312 193.214844 281.863281 193.511719 281.632812 193.789062 C 281.398438 194.070312 281.140625 194.320312 280.855469 194.550781 C 280.574219 194.777344 280.269531 194.972656 279.949219 195.140625 C 279.625 195.308594 279.289062 195.445312 278.941406 195.546875 Z M 230.152344 216.679688 C 229.304688 216.210938 228.425781 215.808594 227.519531 215.46875 C 226.613281 215.132812 225.6875 214.863281 224.738281 214.664062 C 223.792969 214.464844 222.835938 214.335938 221.871094 214.277344 C 220.90625 214.21875 219.941406 214.230469 218.976562 214.316406 C 218.011719 214.402344 217.058594 214.554688 216.117188 214.78125 C 215.179688 215.007812 214.257812 215.300781 213.363281 215.664062 C 212.464844 216.027344 211.597656 216.453125 210.765625 216.941406 C 209.929688 217.433594 209.136719 217.980469 208.382812 218.589844 C 207.632812 219.199219 206.925781 219.859375 206.273438 220.570312 C 205.617188 221.285156 205.019531 222.039062 204.476562 222.839844 C 203.933594 223.640625 203.453125 224.480469 203.035156 225.351562 C 202.617188 226.222656 202.265625 227.121094 201.980469 228.046875 C 201.691406 228.972656 201.476562 229.914062 201.332031 230.867188 C 201.1875 231.824219 201.109375 232.789062 201.109375 233.753906 C 201.105469 234.722656 201.171875 235.683594 201.3125 236.644531 C 201.449219 237.601562 201.660156 238.542969 201.9375 239.46875 C 202.296875 240.707031 202.773438 241.898438 203.367188 243.042969 C 203.964844 244.1875 204.664062 245.265625 205.472656 246.269531 C 206.277344 247.277344 207.175781 248.195312 208.164062 249.023438 C 209.152344 249.851562 210.210938 250.578125 211.34375 251.195312 C 214.28125 252.773438 217.414062 253.585938 220.746094 253.628906 C 222.671875 253.605469 224.550781 253.3125 226.390625 252.746094 C 227.007812 252.5625 227.613281 252.347656 228.207031 252.105469 C 228.804688 251.863281 229.386719 251.589844 229.957031 251.289062 C 230.527344 250.988281 231.078125 250.664062 231.617188 250.308594 C 232.152344 249.953125 232.671875 249.570312 233.167969 249.164062 C 233.667969 248.757812 234.148438 248.328125 234.605469 247.875 C 235.0625 247.421875 235.496094 246.949219 235.90625 246.453125 C 236.316406 245.957031 236.699219 245.441406 237.058594 244.90625 C 237.417969 244.375 237.75 243.824219 238.054688 243.257812 C 238.359375 242.691406 238.636719 242.109375 238.886719 241.515625 C 239.132812 240.921875 239.351562 240.316406 239.539062 239.703125 C 239.726562 239.085938 239.886719 238.464844 240.011719 237.832031 C 240.140625 237.203125 240.234375 236.566406 240.300781 235.925781 C 240.363281 235.285156 240.394531 234.644531 240.398438 234 C 240.398438 233.355469 240.367188 232.714844 240.304688 232.074219 C 240.242188 231.433594 240.148438 230.796875 240.023438 230.164062 C 239.898438 229.535156 239.742188 228.910156 239.554688 228.292969 C 239.207031 227.058594 238.738281 225.867188 238.148438 224.726562 C 237.558594 223.585938 236.855469 222.515625 236.050781 221.519531 C 235.242188 220.519531 234.339844 219.613281 233.347656 218.796875 C 232.351562 217.984375 231.289062 217.277344 230.152344 216.679688 Z M 289.785156 213.46875 C 289.4375 212.226562 288.96875 211.027344 288.378906 209.878906 C 287.789062 208.730469 287.089844 207.652344 286.28125 206.644531 C 285.472656 205.636719 284.574219 204.71875 283.578125 203.894531 C 282.585938 203.070312 281.519531 202.351562 280.378906 201.742188 C 278.085938 200.523438 275.644531 199.78125 273.0625 199.515625 C 270.480469 199.246094 267.941406 199.472656 265.445312 200.191406 C 264.824219 200.371094 264.210938 200.582031 263.613281 200.820312 C 263.011719 201.0625 262.425781 201.332031 261.851562 201.628906 C 261.277344 201.925781 260.71875 202.25 260.179688 202.601562 C 259.636719 202.953125 259.113281 203.332031 258.609375 203.738281 C 258.105469 204.140625 257.621094 204.566406 257.160156 205.019531 C 256.695312 205.46875 256.257812 205.945312 255.84375 206.4375 C 255.425781 206.933594 255.035156 207.445312 254.671875 207.980469 C 254.304688 208.511719 253.96875 209.0625 253.65625 209.628906 C 253.34375 210.195312 253.0625 210.777344 252.808594 211.371094 C 252.554688 211.964844 252.328125 212.570312 252.136719 213.1875 C 251.941406 213.800781 251.777344 214.425781 251.644531 215.058594 C 251.511719 215.691406 251.410156 216.328125 251.339844 216.96875 C 251.269531 217.613281 251.230469 218.257812 251.222656 218.902344 C 251.21875 219.550781 251.242188 220.195312 251.296875 220.839844 C 251.355469 221.480469 251.445312 222.121094 251.5625 222.757812 C 251.683594 223.390625 251.832031 224.019531 252.015625 224.640625 C 252.195312 225.257812 252.40625 225.871094 252.648438 226.46875 C 252.890625 227.066406 253.160156 227.65625 253.460938 228.226562 C 253.757812 228.800781 254.085938 229.355469 254.441406 229.898438 C 254.792969 230.4375 255.171875 230.960938 255.578125 231.464844 C 255.984375 231.964844 256.414062 232.449219 256.867188 232.910156 C 257.320312 233.371094 257.792969 233.808594 258.289062 234.222656 C 258.785156 234.636719 259.300781 235.027344 259.832031 235.390625 C 260.367188 235.753906 260.917969 236.089844 261.484375 236.398438 C 262.054688 236.707031 262.632812 236.988281 263.230469 237.242188 C 263.824219 237.496094 264.429688 237.714844 265.046875 237.910156 C 265.664062 238.101562 266.289062 238.261719 266.921875 238.394531 C 267.554688 238.527344 268.191406 238.625 268.835938 238.695312 C 269.476562 238.761719 270.121094 238.796875 270.769531 238.804688 C 271.414062 238.808594 272.058594 238.78125 272.703125 238.722656 C 273.347656 238.664062 273.984375 238.574219 274.621094 238.453125 C 275.253906 238.332031 275.882812 238.179688 276.5 237.996094 C 277.121094 237.8125 277.730469 237.597656 278.328125 237.355469 C 278.925781 237.113281 279.511719 236.839844 280.085938 236.539062 C 280.65625 236.238281 281.210938 235.910156 281.75 235.554688 C 282.292969 235.199219 282.8125 234.816406 283.3125 234.410156 C 283.816406 234.003906 284.296875 233.574219 284.757812 233.121094 C 285.214844 232.664062 285.652344 232.191406 286.066406 231.691406 C 286.480469 231.195312 286.867188 230.679688 287.226562 230.144531 C 287.589844 229.609375 287.925781 229.058594 288.234375 228.488281 C 288.539062 227.921875 288.820312 227.339844 289.070312 226.742188 C 289.320312 226.148438 289.542969 225.542969 289.730469 224.921875 C 289.921875 224.304688 290.082031 223.679688 290.210938 223.046875 C 290.339844 222.414062 290.4375 221.777344 290.503906 221.132812 C 290.570312 220.492188 290.605469 219.847656 290.609375 219.199219 C 290.613281 218.554688 290.582031 217.910156 290.523438 217.265625 C 290.460938 216.621094 290.371094 215.984375 290.246094 215.347656 C 290.125 214.714844 289.96875 214.089844 289.785156 213.46875 Z M 117.523438 180.277344 L 153.371094 180.277344 C 153.734375 180.277344 154.09375 180.242188 154.449219 180.171875 C 154.804688 180.101562 155.152344 179.996094 155.488281 179.859375 C 155.820312 179.71875 156.140625 179.546875 156.441406 179.347656 C 156.746094 179.144531 157.023438 178.914062 157.28125 178.660156 C 157.539062 178.402344 157.765625 178.121094 157.96875 177.820312 C 158.171875 177.519531 158.339844 177.199219 158.480469 176.863281 C 158.621094 176.527344 158.722656 176.183594 158.796875 175.824219 C 158.867188 175.46875 158.902344 175.109375 158.902344 174.746094 C 158.902344 174.382812 158.867188 174.023438 158.796875 173.667969 C 158.722656 173.3125 158.621094 172.964844 158.480469 172.628906 C 158.339844 172.292969 158.171875 171.976562 157.96875 171.671875 C 157.765625 171.371094 157.539062 171.09375 157.28125 170.835938 C 157.023438 170.578125 156.746094 170.347656 156.441406 170.148438 C 156.140625 169.945312 155.820312 169.773438 155.488281 169.636719 C 155.152344 169.496094 154.804688 169.390625 154.449219 169.320312 C 154.09375 169.25 153.734375 169.214844 153.371094 169.214844 L 117.523438 169.214844 C 117.160156 169.214844 116.800781 169.25 116.445312 169.320312 C 116.089844 169.390625 115.742188 169.496094 115.40625 169.636719 C 115.070312 169.773438 114.753906 169.945312 114.449219 170.148438 C 114.148438 170.347656 113.867188 170.578125 113.613281 170.835938 C 113.355469 171.09375 113.125 171.371094 112.925781 171.671875 C 112.722656 171.976562 112.550781 172.292969 112.414062 172.628906 C 112.273438 172.964844 112.167969 173.3125 112.097656 173.667969 C 112.027344 174.023438 111.992188 174.382812 111.992188 174.746094 C 111.953125 175.132812 111.953125 175.519531 111.996094 175.902344 C 112.039062 176.289062 112.121094 176.664062 112.242188 177.035156 C 112.363281 177.402344 112.523438 177.753906 112.71875 178.089844 C 112.914062 178.421875 113.140625 178.734375 113.402344 179.019531 C 113.664062 179.308594 113.949219 179.566406 114.265625 179.792969 C 114.582031 180.015625 114.914062 180.207031 115.269531 180.363281 C 115.625 180.519531 115.992188 180.636719 116.371094 180.714844 C 116.753906 180.796875 117.136719 180.832031 117.523438 180.832031 Z M 173.835938 189.570312 L 89.644531 189.570312 C 89.28125 189.570312 88.921875 189.609375 88.5625 189.679688 C 88.207031 189.75 87.863281 189.855469 87.527344 189.992188 C 87.191406 190.132812 86.871094 190.300781 86.570312 190.503906 C 86.269531 190.707031 85.988281 190.933594 85.730469 191.191406 C 85.476562 191.449219 85.246094 191.726562 85.042969 192.03125 C 84.84375 192.332031 84.671875 192.652344 84.53125 192.988281 C 84.394531 193.324219 84.289062 193.667969 84.21875 194.023438 C 84.148438 194.378906 84.113281 194.742188 84.113281 195.105469 C 84.113281 195.46875 84.148438 195.828125 84.21875 196.183594 C 84.289062 196.539062 84.394531 196.886719 84.53125 197.222656 C 84.671875 197.554688 84.84375 197.875 85.042969 198.175781 C 85.246094 198.480469 85.476562 198.757812 85.730469 199.015625 C 85.988281 199.273438 86.269531 199.5 86.570312 199.703125 C 86.871094 199.90625 87.191406 200.074219 87.527344 200.214844 C 87.863281 200.355469 88.207031 200.457031 88.5625 200.53125 C 88.921875 200.601562 89.28125 200.636719 89.644531 200.636719 L 173.835938 200.636719 C 174.199219 200.636719 174.558594 200.601562 174.917969 200.53125 C 175.273438 200.457031 175.617188 200.355469 175.953125 200.214844 C 176.289062 200.074219 176.609375 199.90625 176.910156 199.703125 C 177.210938 199.5 177.492188 199.273438 177.75 199.015625 C 178.003906 198.757812 178.234375 198.480469 178.4375 198.175781 C 178.636719 197.875 178.808594 197.554688 178.949219 197.222656 C 179.085938 196.886719 179.191406 196.539062 179.261719 196.183594 C 179.332031 195.828125 179.367188 195.46875 179.367188 195.105469 C 179.335938 194.765625 179.269531 194.429688 179.175781 194.105469 C 179.078125 193.777344 178.953125 193.460938 178.800781 193.15625 C 178.644531 192.851562 178.464844 192.566406 178.257812 192.292969 C 178.050781 192.023438 177.820312 191.773438 177.566406 191.546875 C 177.3125 191.316406 177.039062 191.113281 176.75 190.9375 C 176.457031 190.757812 176.152344 190.609375 175.832031 190.488281 C 175.515625 190.367188 175.1875 190.273438 174.851562 190.214844 C 174.515625 190.152344 174.179688 190.125 173.835938 190.125 Z M 153.371094 209.929688 L 128.144531 209.929688 C 127.78125 209.929688 127.421875 209.964844 127.066406 210.035156 C 126.710938 210.105469 126.363281 210.210938 126.027344 210.351562 C 125.691406 210.488281 125.375 210.660156 125.070312 210.863281 C 124.769531 211.0625 124.488281 211.292969 124.234375 211.550781 C 123.976562 211.804688 123.746094 212.085938 123.546875 212.386719 C 123.34375 212.691406 123.171875 213.007812 123.035156 213.34375 C 122.894531 213.679688 122.789062 214.027344 122.71875 214.382812 C 122.648438 214.738281 122.613281 215.097656 122.613281 215.460938 C 122.613281 215.824219 122.648438 216.183594 122.71875 216.539062 C 122.789062 216.894531 122.894531 217.242188 123.035156 217.578125 C 123.171875 217.914062 123.34375 218.230469 123.546875 218.535156 C 123.746094 218.835938 123.976562 219.117188 124.234375 219.371094 C 124.488281 219.628906 124.769531 219.859375 125.070312 220.058594 C 125.375 220.261719 125.691406 220.433594 126.027344 220.570312 C 126.363281 220.710938 126.710938 220.816406 127.066406 220.886719 C 127.421875 220.957031 127.78125 220.992188 128.144531 220.992188 L 153.371094 220.992188 C 153.734375 220.992188 154.09375 220.957031 154.449219 220.886719 C 154.804688 220.816406 155.152344 220.710938 155.488281 220.570312 C 155.820312 220.433594 156.140625 220.261719 156.441406 220.058594 C 156.746094 219.859375 157.023438 219.628906 157.28125 219.371094 C 157.539062 219.117188 157.765625 218.835938 157.96875 218.535156 C 158.171875 218.230469 158.339844 217.914062 158.480469 217.578125 C 158.621094 217.242188 158.722656 216.894531 158.796875 216.539062 C 158.867188 216.183594 158.902344 215.824219 158.902344 215.460938 C 158.902344 215.097656 158.867188 214.738281 158.796875 214.382812 C 158.722656 214.027344 158.621094 213.679688 158.480469 213.34375 C 158.339844 213.007812 158.171875 212.691406 157.96875 212.386719 C 157.765625 212.085938 157.539062 211.804688 157.28125 211.550781 C 157.023438 211.292969 156.746094 211.0625 156.441406 210.859375 C 156.140625 210.660156 155.820312 210.488281 155.488281 210.351562 C 155.152344 210.210938 154.804688 210.105469 154.449219 210.035156 C 154.09375 209.964844 153.734375 209.929688 153.371094 209.929688 Z M 153.371094 209.929688 " fill-opacity="1" fill-rule="nonzero"/></svg>